<svg xmlns="http://www.w3.org/2000/svg" width="164.995" height="44.779" viewBox="0 0 164.995 44.779"><g transform="translate(-34.362 -18.851)"><g transform="translate(34.366 18.851)"><path d="M34.372,52.533v-.917l.724-.193a2.128,2.128,0,0,0,1.3-.868,3.407,3.407,0,0,0,.386-1.544V37.357q0-1.278-.048-2.63a2.761,2.761,0,0,0-.362-1.52,1.956,1.956,0,0,0-1.327-.748l-.676-.145v-.869l8.445-2.8.579.531-.145,6.852V49.059a2.888,2.888,0,0,0,.362,1.544,2.218,2.218,0,0,0,1.279.869l.53.145v.917Zm5.549-26.54a3.864,3.864,0,0,1-2.7-1.013,3.529,3.529,0,0,1,0-5.139,4.186,4.186,0,0,1,5.4,0,3.529,3.529,0,0,1,0,5.139A3.865,3.865,0,0,1,39.921,25.993Z" transform="translate(-34.372 -18.851)" fill="#fff"/><path d="M68.549,68.152v-.965l1.062-.289a1.614,1.614,0,0,0,1.013-.7,3.077,3.077,0,0,0,.289-1.23V52.711q0-1.109-.048-2.606a2.787,2.787,0,0,0-.241-1.279,1.508,1.508,0,0,0-1.062-.651l-1.013-.241v-.869l7.817-2.8.579.531.338,3.233a18.43,18.43,0,0,1,3.764-2.654,8.9,8.9,0,0,1,4.246-1.11,6.389,6.389,0,0,1,3.764.965,6.037,6.037,0,0,1,2.075,2.944A14.243,14.243,0,0,1,95.186,45.3a10.31,10.31,0,0,1,4.391-1.038,6.687,6.687,0,0,1,4.922,1.641q1.64,1.641,1.641,5.163V65.016a1.786,1.786,0,0,0,1.351,1.93l.917.241v.965H97.55v-.965l.869-.241a1.861,1.861,0,0,0,1.3-1.978V50.829a4.017,4.017,0,0,0-.748-2.823,3.351,3.351,0,0,0-2.437-.748,5.845,5.845,0,0,0-2.461.531,12.921,12.921,0,0,0-2.557,1.641,17.1,17.1,0,0,1,.289,3.33V65.016a2.9,2.9,0,0,0,.314,1.279,1.554,1.554,0,0,0,1.038.651l.82.241v.965H83.074v-.965l1.013-.289a1.725,1.725,0,0,0,1.038-.7,2.452,2.452,0,0,0,.265-1.23V50.877a4.237,4.237,0,0,0-.724-2.8,3.149,3.149,0,0,0-2.461-.82,7.715,7.715,0,0,0-4.777,2.123V65.016a1.744,1.744,0,0,0,1.351,1.93l.821.241v.965Z" transform="translate(-55.376 -34.47)" fill="#fff"/><path d="M182.123,68.828a7.092,7.092,0,0,1-4.657-1.568,5.506,5.506,0,0,1-1.906-4.512,5.641,5.641,0,0,1,2.244-4.271q2.244-1.955,7.069-2.871.82-.193,1.906-.362t2.147-.362V51.456a8.9,8.9,0,0,0-.82-4.536,2.888,2.888,0,0,0-2.606-1.255h-.145a2.291,2.291,0,0,0-1.761.7,4.055,4.055,0,0,0-.844,2.292l-.145.627a4.429,4.429,0,0,1-1.013,2.823A2.9,2.9,0,0,1,179.42,53a2.806,2.806,0,0,1-2-.748,2.557,2.557,0,0,1-.8-1.954,4.524,4.524,0,0,1,1.351-3.33,8.4,8.4,0,0,1,3.595-2.027,16.758,16.758,0,0,1,4.85-.676q4.294,0,6.563,2.075t2.268,6.756V63.857q0,2.076,1.978,2.075h1.11l.483.531a6.613,6.613,0,0,1-1.93,1.713,5.88,5.88,0,0,1-2.895.6,5.127,5.127,0,0,1-3.306-.989,4.62,4.62,0,0,1-1.616-2.63,18.512,18.512,0,0,1-3.04,2.654A6.844,6.844,0,0,1,182.123,68.828Zm2.8-3.088a4.049,4.049,0,0,0,1.834-.434,13.93,13.93,0,0,0,2.172-1.448V56.137q-1.256.193-2.558.483a6.7,6.7,0,0,0-3.354,1.785,4.811,4.811,0,0,0-1.279,3.523,4.037,4.037,0,0,0,.893,2.871A3.018,3.018,0,0,0,184.921,65.74Z" transform="translate(-121.142 -34.47)" fill="#fff"/><path d="M302.868,52.533v-.917l.724-.193a2.129,2.129,0,0,0,1.3-.868,3.4,3.4,0,0,0,.386-1.544V37.357q0-1.278-.048-2.63a2.765,2.765,0,0,0-.362-1.52,1.958,1.958,0,0,0-1.327-.748l-.676-.145v-.869l8.445-2.8.579.531-.145,6.852V49.059a2.885,2.885,0,0,0,.362,1.544,2.216,2.216,0,0,0,1.279.869l.531.145v.917Zm5.55-26.54a3.865,3.865,0,0,1-2.7-1.013,3.53,3.53,0,0,1,0-5.139,4.187,4.187,0,0,1,5.4,0,3.53,3.53,0,0,1,0,5.139A3.865,3.865,0,0,1,308.418,25.993Z" transform="translate(-199.381 -18.851)" fill="#fff"/><path d="M337.046,68.152v-.917l.772-.193a2.192,2.192,0,0,0,1.593-2.364V50.443a3.867,3.867,0,0,0-.338-1.569,1.684,1.684,0,0,0-1.255-.748l-.772-.193v-.869l7.817-2.8.579.531.338,2.992a15.7,15.7,0,0,1,3.885-2.533,10.044,10.044,0,0,1,4.222-.989,6.573,6.573,0,0,1,4.9,1.737q1.712,1.737,1.713,5.308V64.726a2.209,2.209,0,0,0,1.738,2.365l.531.145v.917h-11.1v-.917l.724-.193a2.237,2.237,0,0,0,1.592-2.364V50.346a3.516,3.516,0,0,0-.723-2.461,3.2,3.2,0,0,0-2.413-.772,7.937,7.937,0,0,0-4.922,2.075V64.726a2.2,2.2,0,0,0,1.689,2.365l.482.145v.917Z" transform="translate(-220.386 -34.47)" fill="#fff"/><path d="M418.224,44.266a10.252,10.252,0,0,1,5.211,1.255,8.659,8.659,0,0,1,3.354,3.45,10.471,10.471,0,0,1,1.183,5.043q0,.628-.049,1.182a5.146,5.146,0,0,1-.193,1.038H413.205q.047,4.971,1.858,7.142a6.486,6.486,0,0,0,5.284,2.172,8.315,8.315,0,0,0,3.909-.8,9.669,9.669,0,0,0,2.75-2.244l.772.724a10.561,10.561,0,0,1-3.933,4.126,11.4,11.4,0,0,1-5.911,1.472A12.215,12.215,0,0,1,411.9,67.38a10.2,10.2,0,0,1-4.077-4.174,13.575,13.575,0,0,1-1.472-6.538,12.446,12.446,0,0,1,1.713-6.708,11.959,11.959,0,0,1,10.158-5.694Zm-.241,1.4a3.887,3.887,0,0,0-2.437.8,5.384,5.384,0,0,0-1.641,2.8,22.469,22.469,0,0,0-.7,5.622h8.638q.53-4.874-.386-7.045A3.434,3.434,0,0,0,417.983,45.666Z" transform="translate(-262.98 -34.47)" fill="#fff"/><path d="M255.888,62.154a28,28,0,0,0-4.343-1.183l-8.589-1.593a1.611,1.611,0,0,1-1.448-1.737V55.9a12.775,12.775,0,0,0,5.453,1.062q4.68,0,7.166-2.172a7.092,7.092,0,0,0,2.485-5.6,7.348,7.348,0,0,0-1.492-4.658c0-.007-.006-.013-.011-.02a5.953,5.953,0,0,0-.537-.648c1.839.191,3.6.468,5.033.727,0,0,2.086-2.235.289-4.343-1.217-1.428-3.841-.17-3.841-.17a17.1,17.1,0,0,0-3.392,2.409,12.516,12.516,0,0,0-5.7-1.164q-4.681,0-7.166,2.172A7.2,7.2,0,0,0,237.31,49.2a6.8,6.8,0,0,0,3.474,6.321l-1.737,2.172a11.057,11.057,0,0,0-1.062,1.544,3.389,3.389,0,0,0-.434,1.689q0,2.414,2.944,3.522a9.964,9.964,0,0,0-3.064,2.9,6.139,6.139,0,0,0-1.182,3.474,4.347,4.347,0,0,0,.965,2.7,6.806,6.806,0,0,0,3.209,2.05,18.623,18.623,0,0,0,6.056.8,19.427,19.427,0,0,0,7.407-1.23,10.528,10.528,0,0,0,4.488-3.233,7,7,0,0,0,1.52-4.319,5.24,5.24,0,0,0-1.061-3.45A6.816,6.816,0,0,0,255.888,62.154Zm-11.751-18a3.146,3.146,0,0,1,2.871-1.52,3.1,3.1,0,0,1,2.848,1.5,9.862,9.862,0,0,1,.917,4.922,10.2,10.2,0,0,1-.941,5.043,3.209,3.209,0,0,1-2.968,1.568,2.981,2.981,0,0,1-2.8-1.52,10.623,10.623,0,0,1-.868-4.995A9.915,9.915,0,0,1,244.138,44.155ZM253.065,73.4q-1.955,1.326-6.008,1.327-3.668,0-5.356-1.327a4.753,4.753,0,0,1-1.689-3.981A6.7,6.7,0,0,1,240.495,67a9.1,9.1,0,0,1,1.206-2.22l.386.1,8.638,1.689a7.908,7.908,0,0,1,3.305,1.206,2.545,2.545,0,0,1,.989,2.123A4.054,4.054,0,0,1,253.065,73.4Z" transform="translate(-158.439 -31.586)" fill="#fff"/></g><g transform="translate(34.362 58.007)"><path d="M38.644,123.107c0,1.556-.964,2.665-2.908,2.665-.387,0-1.025-.038-1.374-.076v-5.178c.349-.038.987-.076,1.374-.076C37.68,120.442,38.644,121.551,38.644,123.107Zm-.569,0a2.062,2.062,0,0,0-2.339-2.179c-.212,0-.532.015-.82.03v4.3c.288.015.607.03.82.03A2.062,2.062,0,0,0,38.075,123.107Z" transform="translate(-34.362 -120.442)" fill="#fff"/><path d="M51.71,125.8H48.6V120.56h3.151l-.068.486H49.159V122.9h2.225v.486H49.159v1.928h2.619Z" transform="translate(-43.115 -120.515)" fill="#fff"/><path d="M59.977,120.56l1.739,4.313,1.739-4.313h.486l.623,5.239h-.554l-.463-4.084L61.9,125.8h-.364l-1.648-4.084-.463,4.084h-.554l.623-5.239Z" transform="translate(-49.423 -120.515)" fill="#fff"/><path d="M76.617,124.337l-.607,1.488-.554-.076,2.179-5.193.494-.015,2.172,5.209-.554.076-.608-1.488Zm1.268-3.09-1.07,2.6h2.126Z" transform="translate(-59.617 -120.502)" fill="#fff"/><path d="M90.942,120.462v5.277h-.554v-5.2Z" transform="translate(-68.794 -120.454)" fill="#fff"/><path d="M96.272,120.5l2.877,4.237v-4.2l.554-.076v5.277H99.21L96.34,121.5v4.237h-.554V120.5Z" transform="translate(-72.111 -120.454)" fill="#fff"/><path d="M117.695,125.739h-2.939v-5.2l.554-.076v4.791h2.452Z" transform="translate(-83.77 -120.454)" fill="#fff"/><path d="M128.224,125.8h-3.105V120.56h3.151l-.069.486h-2.528V122.9H127.9v.486h-2.225v1.928h2.619Z" transform="translate(-90.138 -120.515)" fill="#fff"/><path d="M141.318,120.56l1.739,4.313,1.739-4.313h.486l.622,5.239h-.554l-.463-4.084-1.648,4.084h-.364l-1.648-4.084-.463,4.084h-.554l.622-5.239Z" transform="translate(-99.412 -120.515)" fill="#fff"/><path d="M157.269,123.107a2.525,2.525,0,1,1,2.521,2.665A2.472,2.472,0,0,1,157.269,123.107Zm4.472,0a1.962,1.962,0,1,0-1.951,2.172A1.978,1.978,0,0,0,161.741,123.107Z" transform="translate(-109.897 -120.442)" fill="#fff"/><path d="M173.968,120.5l2.878,4.237v-4.2l.554-.076v5.277h-.494l-2.87-4.237v4.237h-.554V120.5Z" transform="translate(-119.861 -120.454)" fill="#fff"/><path d="M191.908,123.107c0,1.556-.964,2.665-2.908,2.665-.387,0-1.025-.038-1.374-.076v-5.178c.349-.038.987-.076,1.374-.076C190.944,120.442,191.908,121.551,191.908,123.107Zm-.569,0A2.061,2.061,0,0,0,189,120.928c-.213,0-.532.015-.82.03v4.3c.289.015.607.03.82.03A2.062,2.062,0,0,0,191.339,123.107Z" transform="translate(-128.553 -120.442)" fill="#fff"/><path d="M204.974,125.8h-3.105V120.56h3.151l-.068.486h-2.528V122.9h2.225v.486h-2.225v1.928h2.619Z" transform="translate(-137.307 -120.515)" fill="#fff"/></g><g transform="translate(152.751 58.03)"><path d="M341.522,125.035l.311-.365a2.292,2.292,0,0,0,1.655.683c.645,0,1.321-.273,1.321-.979,0-.691-.652-.865-1.344-1.048-.782-.205-1.617-.433-1.617-1.435s.828-1.389,1.731-1.389a2.63,2.63,0,0,1,1.678.577l-.273.395a2.148,2.148,0,0,0-1.374-.493c-.637,0-1.2.273-1.2.9,0,.645.63.8,1.306.987.8.205,1.663.433,1.663,1.481,0,1.116-.979,1.5-1.86,1.5A2.766,2.766,0,0,1,341.522,125.035Z" transform="translate(-341.522 -120.502)" fill="#fff"/><path d="M357.423,125.8h-2.938v-5.2l.554-.076v4.791h2.453Z" transform="translate(-349.489 -120.514)" fill="#fff"/><path d="M363.192,123.167a2.525,2.525,0,1,1,2.521,2.665A2.472,2.472,0,0,1,363.192,123.167Zm4.472,0a1.962,1.962,0,1,0-1.951,2.172A1.978,1.978,0,0,0,367.664,123.167Z" transform="translate(-354.84 -120.502)" fill="#fff"/><path d="M383.035,125.786h-.471l-1.435-4.328-1.427,4.328h-.471l-1.579-5.216.516-.068,1.314,4.328,1.4-4.282h.478l1.412,4.274,1.314-4.32.524.068Z" transform="translate(-363.726 -120.502)" fill="#fff"/><path d="M407.056,122.176c0,.979-.706,1.663-2.164,1.663-.25,0-.493-.008-.721-.023V125.8h-.554v-5.2a11.7,11.7,0,0,1,1.275-.076C406.35,120.521,407.056,121.2,407.056,122.176Zm-.562,0c0-.743-.562-1.169-1.6-1.169-.258,0-.5.008-.721.023v2.3c.22.015.463.023.721.023C405.933,123.353,406.495,122.928,406.495,122.176Z" transform="translate(-379.684 -120.514)" fill="#fff"/><path d="M418.987,125.856a1.74,1.74,0,0,1-1.511-1.109l-.524-.926a3.686,3.686,0,0,1-.418.022c-.25,0-.493-.007-.721-.022v1.989h-.554v-5.2a11.9,11.9,0,0,1,1.275-.069c1.458,0,2.164.676,2.164,1.647a1.52,1.52,0,0,1-1.207,1.534l.486.812c.3.5.577.873,1.093.873a.9.9,0,0,0,.326-.061l.053.425A1.148,1.148,0,0,1,418.987,125.856Zm-2.452-2.5c1.025,0,1.6-.417,1.6-1.169s-.577-1.161-1.6-1.161c-.258,0-.5.007-.721.022v2.286C416.033,123.35,416.277,123.358,416.534,123.358Z" transform="translate(-386.838 -120.526)" fill="#fff"/><path d="M432.075,125.859H428.97V120.62h3.151l-.069.486h-2.528v1.852h2.225v.486h-2.225v1.929h2.619Z" transform="translate(-395.265 -120.575)" fill="#fff"/><path d="M438.86,125.035l.311-.365a2.292,2.292,0,0,0,1.655.683c.645,0,1.321-.273,1.321-.979,0-.691-.653-.865-1.344-1.048-.782-.205-1.617-.433-1.617-1.435s.828-1.389,1.731-1.389a2.629,2.629,0,0,1,1.678.577l-.274.395a2.147,2.147,0,0,0-1.374-.493c-.638,0-1.2.273-1.2.9,0,.645.63.8,1.306.987.8.205,1.663.433,1.663,1.481,0,1.116-.979,1.5-1.86,1.5A2.766,2.766,0,0,1,438.86,125.035Z" transform="translate(-401.343 -120.502)" fill="#fff"/><path d="M450.838,125.035l.311-.365a2.293,2.293,0,0,0,1.655.683c.646,0,1.321-.273,1.321-.979,0-.691-.653-.865-1.344-1.048-.782-.205-1.617-.433-1.617-1.435s.828-1.389,1.731-1.389a2.631,2.631,0,0,1,1.678.577l-.274.395a2.148,2.148,0,0,0-1.374-.493c-.638,0-1.2.273-1.2.9,0,.645.63.8,1.306.987.8.205,1.662.433,1.662,1.481,0,1.116-.979,1.5-1.86,1.5A2.765,2.765,0,0,1,450.838,125.035Z" transform="translate(-408.704 -120.502)" fill="#fff"/></g></g></svg>