<svg xmlns="http://www.w3.org/2000/svg" width="33.443" height="33.426" viewBox="0 0 33.443 33.426"><path d="M16.721,0A16.713,16.713,0,1,1,0,16.713,16.717,16.717,0,0,1,16.721,0Zm4.341,6.267H12.381a5.746,5.746,0,0,0-6.1,5.787l-.006.32v8.634a6.059,6.059,0,0,0,1.77,4.507,6.053,6.053,0,0,0,4.016,1.634l.367.008h8.6a6.225,6.225,0,0,0,4.425-1.643,5.918,5.918,0,0,0,1.72-4.106l.008-.359V12.375a6.036,6.036,0,0,0-1.686-4.38,5.9,5.9,0,0,0-4.074-1.719l-.351-.008ZM12.423,8.2H21.1A4.2,4.2,0,0,1,24.18,9.342a4.282,4.282,0,0,1,1.129,2.731l.009.3v8.676A4.115,4.115,0,0,1,24.1,24.126a4.241,4.241,0,0,1-2.765,1.087l-.312.008h-8.6a4.357,4.357,0,0,1-3.076-1.1,4.1,4.1,0,0,1-1.13-2.8l-.008-.321V12.375A4.2,4.2,0,0,1,9.347,9.3a4.147,4.147,0,0,1,2.764-1.087l.312-.008h0Zm4.3,3.075a5.391,5.391,0,1,0,5.394,5.391A5.4,5.4,0,0,0,16.721,11.28Zm0,1.937a3.454,3.454,0,1,1-3.455,3.454,3.47,3.47,0,0,1,3.455-3.454Zm5.6-3.285a1.221,1.221,0,1,0,1.222,1.221A1.222,1.222,0,0,0,22.326,9.932Z" fill="#fff"/></svg>