<svg xmlns="http://www.w3.org/2000/svg" viewBox="0 0 247.98 114.26"><defs><style>.cls-1{fill:#fff;}</style></defs><g id="Calque_2" data-name="Calque 2"><g id="Calque_1-2" data-name="Calque 1"><path class="cls-1" d="M89.86,55.54a25.16,25.16,0,0,1,9.81,1.67,15.29,15.29,0,0,1,6.12,4.42,12.83,12.83,0,0,1,2.75,5.92l-12.17,4a10.08,10.08,0,0,0-2-5,5.19,5.19,0,0,0-4.15-1.67A7.31,7.31,0,0,0,86.11,66a6.75,6.75,0,0,0-2.52,3.57,19.21,19.21,0,0,0-.85,6.24A17.13,17.13,0,0,0,83.66,82a6.72,6.72,0,0,0,2.64,3.41,7.63,7.63,0,0,0,4,1,6.35,6.35,0,0,0,3.21-.73,6,6,0,0,0,2.14-2.13,8.36,8.36,0,0,0,1.08-3.41L108.62,84a11.82,11.82,0,0,1-2.91,6.09,16.13,16.13,0,0,1-6.24,4.22,24.34,24.34,0,0,1-9.06,1.55,24.54,24.54,0,0,1-11.08-2.36A16.82,16.82,0,0,1,72,86.58a21.87,21.87,0,0,1-2.56-10.89A21.92,21.92,0,0,1,72,64.8a16.9,16.9,0,0,1,7.17-6.89,23,23,0,0,1,10.65-2.37"/><path class="cls-1" d="M134.4,83.34a6.81,6.81,0,0,0-3.87,1.08,6.73,6.73,0,0,0-2.48,3.49,18.83,18.83,0,0,0-.85,6.2,18.45,18.45,0,0,0,.85,6.16,6.9,6.9,0,0,0,2.48,3.49,6.61,6.61,0,0,0,3.87,1.12,6.81,6.81,0,0,0,4-1.12,6.88,6.88,0,0,0,2.47-3.49,18.42,18.42,0,0,0,.86-6.16,18.8,18.8,0,0,0-.86-6.2,6.71,6.71,0,0,0-2.47-3.49,7,7,0,0,0-4-1.08m0-9.38a23.22,23.22,0,0,1,10.74,2.37,17.14,17.14,0,0,1,7.2,6.89,21.56,21.56,0,0,1,2.6,10.89,21.56,21.56,0,0,1-2.6,10.89,17.22,17.22,0,0,1-7.2,6.9,25.32,25.32,0,0,1-21.35,0,17.17,17.17,0,0,1-7.25-6.9,21.56,21.56,0,0,1-2.6-10.89,21.56,21.56,0,0,1,2.6-10.89,17.09,17.09,0,0,1,7.25-6.89A23,23,0,0,1,134.4,74"/><path class="cls-1" d="M179.61,64.92A6.74,6.74,0,0,0,175.74,66a6.66,6.66,0,0,0-2.48,3.48,18.83,18.83,0,0,0-.85,6.2,18.45,18.45,0,0,0,.85,6.16,6.9,6.9,0,0,0,2.48,3.49,6.61,6.61,0,0,0,3.87,1.12,6.81,6.81,0,0,0,4-1.12,7,7,0,0,0,2.48-3.49,18.71,18.71,0,0,0,.85-6.16,19.1,19.1,0,0,0-.85-6.2A6.71,6.71,0,0,0,183.57,66a7,7,0,0,0-4-1.09m0-9.38a23.22,23.22,0,0,1,10.74,2.37,17.14,17.14,0,0,1,7.2,6.89,21.62,21.62,0,0,1,2.6,10.89,21.56,21.56,0,0,1-2.6,10.89,17.22,17.22,0,0,1-7.2,6.9,25.32,25.32,0,0,1-21.35,0,17.17,17.17,0,0,1-7.25-6.9,21.56,21.56,0,0,1-2.59-10.89,21.62,21.62,0,0,1,2.59-10.89A17.09,17.09,0,0,1,169,57.91a23,23,0,0,1,10.61-2.37"/><path class="cls-1" d="M227.44,86.15a6.35,6.35,0,0,0,5.35-2.52q1.94-2.5,1.94-7.94c0-3.61-.64-6.26-1.9-7.94a6.76,6.76,0,0,0-9.11-1.32A7.72,7.72,0,0,0,221.2,70a16.19,16.19,0,0,0-.89,5.73,17.08,17.08,0,0,0,.82,5.62,7.3,7.3,0,0,0,2.44,3.6,6.16,6.16,0,0,0,3.87,1.24m-20.3,25.19v-55H219l.69,14-1.55-1.63a17,17,0,0,1,2.41-6.82,13.86,13.86,0,0,1,4.8-4.65,13.17,13.17,0,0,1,6.74-1.71,14.78,14.78,0,0,1,8.37,2.37A15.39,15.39,0,0,1,246,64.73a26.52,26.52,0,0,1,2,10.81,26.81,26.81,0,0,1-2,10.92,15.71,15.71,0,0,1-5.61,7,14.84,14.84,0,0,1-8.41,2.4,11.78,11.78,0,0,1-8.53-3.14,15.53,15.53,0,0,1-4.34-7.94l1.24-1.86v28.44Z"/><path class="cls-1" d="M8.33,10.72A5.83,5.83,0,0,1,4.27,9.2,5,5,0,0,1,2.61,5.36,5,5,0,0,1,4.27,1.48,5.94,5.94,0,0,1,8.33,0a5.94,5.94,0,0,1,4.06,1.48,5,5,0,0,1,1.66,3.88A5,5,0,0,1,12.39,9.2a5.83,5.83,0,0,1-4.06,1.52M0,50.56V49.18l1.09-.29a3.2,3.2,0,0,0,2-1.3,5.1,5.1,0,0,0,.58-2.32V27.78c0-1.28,0-2.6-.07-4A4.13,4.13,0,0,0,3,21.55a2.93,2.93,0,0,0-2-1.12l-1-.22V18.9l12.68-4.2.87.8-.22,10.29V45.34a4.35,4.35,0,0,0,.54,2.32A3.31,3.31,0,0,0,15.79,49l.8.22v1.38Z"/><path class="cls-1" d="M19.77,50.56V49.11l1.6-.44a2.41,2.41,0,0,0,1.52-1.05,4.61,4.61,0,0,0,.43-1.84V27.38c0-1.11,0-2.42-.07-3.91a4.21,4.21,0,0,0-.36-1.92,2.26,2.26,0,0,0-1.6-1l-1.52-.36V18.9l11.74-4.2.87.8.5,4.85a28,28,0,0,1,5.65-4,13.39,13.39,0,0,1,6.38-1.67,9.66,9.66,0,0,1,5.65,1.45,9.05,9.05,0,0,1,3.11,4.42,21.48,21.48,0,0,1,6.09-4.31,15.42,15.42,0,0,1,6.59-1.56q4.92,0,7.38,2.47t2.47,7.75V45.85a2.68,2.68,0,0,0,2,2.9l1.37.36v1.45H63.3V49.11l1.31-.36a2.8,2.8,0,0,0,2-3V24.55c0-2.07-.37-3.48-1.12-4.23a5,5,0,0,0-3.66-1.13,8.78,8.78,0,0,0-3.69.8,19.24,19.24,0,0,0-3.84,2.46,25.74,25.74,0,0,1,.43,5v18.4a4.34,4.34,0,0,0,.48,1.92,2.34,2.34,0,0,0,1.55,1l1.23.36v1.45H41.57V49.11l1.53-.44a2.55,2.55,0,0,0,1.55-1.05,3.59,3.59,0,0,0,.4-1.84V24.63q0-3-1.08-4.2a4.71,4.71,0,0,0-3.7-1.24c-2.22,0-4.61,1.07-7.17,3.19V45.85a2.63,2.63,0,0,0,2,2.9l1.23.36v1.45Z"/><path class="cls-1" d="M95.73,46.94a6,6,0,0,0,2.76-.66,21.06,21.06,0,0,0,3.26-2.17V32.52c-1.26.2-2.54.44-3.84.73a10,10,0,0,0-5,2.68A7.2,7.2,0,0,0,91,41.21a6.06,6.06,0,0,0,1.34,4.31,4.55,4.55,0,0,0,3.44,1.42m-4.2,4.63a10.64,10.64,0,0,1-7-2.35,8.3,8.3,0,0,1-2.86-6.78c0-2.31,1.13-4.45,3.37-6.41s5.78-3.39,10.61-4.3c.82-.2,1.78-.38,2.86-.55s2.16-.35,3.23-.54V25.5q0-4.93-1.23-6.81A4.35,4.35,0,0,0,96.6,16.8h-.21a3.45,3.45,0,0,0-2.65,1.05,6.09,6.09,0,0,0-1.26,3.44l-.22.95a6.64,6.64,0,0,1-1.52,4.23,4.34,4.34,0,0,1-3.26,1.34,4.22,4.22,0,0,1-3-1.12,3.83,3.83,0,0,1-1.19-2.93,6.79,6.79,0,0,1,2-5,12.66,12.66,0,0,1,5.4-3,25,25,0,0,1,7.28-1q6.45,0,9.85,3.12c2.27,2.07,3.41,5.46,3.41,10.14V44.11c0,2.08,1,3.12,3,3.12h1.67l.73.79a9.94,9.94,0,0,1-2.9,2.57,8.74,8.74,0,0,1-4.35.91,7.7,7.7,0,0,1-5-1.49A6.93,6.93,0,0,1,102,46.07a27.24,27.24,0,0,1-4.56,4,10.31,10.31,0,0,1-5.87,1.52"/><path class="cls-1" d="M163.67,10.72a5.81,5.81,0,0,1-4.06-1.52,5,5,0,0,1-1.67-3.84,5,5,0,0,1,1.67-3.88,6.3,6.3,0,0,1,8.11,0,5,5,0,0,1,1.67,3.88,5,5,0,0,1-1.67,3.84,5.81,5.81,0,0,1-4.05,1.52m-8.33,39.84V49.18l1.08-.29a3.2,3.2,0,0,0,2-1.3,5.1,5.1,0,0,0,.58-2.32V27.78c0-1.28,0-2.6-.07-4a4,4,0,0,0-.55-2.28,2.88,2.88,0,0,0-2-1.12l-1-.22V18.9L168,14.7l.87.8-.22,10.29V45.34a4.35,4.35,0,0,0,.55,2.32,3.31,3.31,0,0,0,1.92,1.3l.79.22v1.38Z"/><path class="cls-1" d="M175.11,50.56V49.18l1.16-.29a3.29,3.29,0,0,0,2.39-3.55V24a5.82,5.82,0,0,0-.51-2.35,2.53,2.53,0,0,0-1.88-1.12l-1.16-.29V18.9l11.73-4.2.87.8.51,4.49a23.71,23.71,0,0,1,5.83-3.8,15.08,15.08,0,0,1,6.34-1.49q4.79,0,7.35,2.61t2.57,8V45.41A3.31,3.31,0,0,0,212.92,49l.8.22v1.38H197.06V49.18l1.08-.29a3.35,3.35,0,0,0,2.39-3.55V23.83a5.28,5.28,0,0,0-1.08-3.69A4.78,4.78,0,0,0,195.82,19q-3.54,0-7.38,3.11V45.41A3.3,3.3,0,0,0,191,49l.73.22v1.38Z"/><path class="cls-1" d="M232.66,16.8A5.78,5.78,0,0,0,229,18a8.15,8.15,0,0,0-2.47,4.2,34.13,34.13,0,0,0-1,8.44h13q.79-7.32-.58-10.58a5.16,5.16,0,0,0-5.22-3.26m.37-2.1a15.33,15.33,0,0,1,7.82,1.89,12.92,12.92,0,0,1,5,5.18,15.61,15.61,0,0,1,1.78,7.56c0,.63,0,1.23-.08,1.78a7,7,0,0,1-.29,1.56h-21.8q.07,7.45,2.79,10.72c1.81,2.17,4.46,3.26,7.93,3.26a12.44,12.44,0,0,0,5.87-1.2,14.56,14.56,0,0,0,4.13-3.37l1.16,1.09a15.8,15.8,0,0,1-5.91,6.19,17.09,17.09,0,0,1-8.87,2.21,18.28,18.28,0,0,1-9.05-2.17,15.28,15.28,0,0,1-6.12-6.27,20.28,20.28,0,0,1-2.21-9.81,18.63,18.63,0,0,1,2.57-10.07,17.67,17.67,0,0,1,6.66-6.34A17.87,17.87,0,0,1,233,14.7"/><path class="cls-1" d="M142,62.76c-2,1.33-5,2-9,2q-5.51,0-8-2a7.14,7.14,0,0,1-2.54-6,10,10,0,0,1,.73-3.62A13.61,13.61,0,0,1,125,49.83l.58.15,13,2.53a12,12,0,0,1,5,1.81A3.85,3.85,0,0,1,145,57.51,6.1,6.1,0,0,1,142,62.76m-13.4-43.89A4.7,4.7,0,0,1,133,16.58a4.65,4.65,0,0,1,4.27,2.25q1.38,2.25,1.38,7.39c0,3.47-.47,6-1.42,7.57a4.8,4.8,0,0,1-4.45,2.35,4.48,4.48,0,0,1-4.2-2.28q-1.31-2.28-1.31-7.5c0-3.47.48-6,1.42-7.49m17.63,27a41.56,41.56,0,0,0-6.51-1.77l-12.9-2.39a2.42,2.42,0,0,1-2.17-2.61V36.5a19.07,19.07,0,0,0,8.18,1.6q7,0,10.76-3.26a10.65,10.65,0,0,0,3.73-8.4,11.07,11.07,0,0,0-2.24-7l0,0a10.62,10.62,0,0,0-.8-1c2.76.29,5.4.7,7.55,1.09,0,0,3.13-3.35.44-6.52-1.83-2.14-5.77-.25-5.77-.25a25.31,25.31,0,0,0-5.09,3.62,18.67,18.67,0,0,0-8.56-1.75q-7,0-10.75,3.26a10.79,10.79,0,0,0-3.73,8.55c0,4.29,1.74,7.46,5.21,9.48L121,39.18a18.47,18.47,0,0,0-1.59,2.32,5.13,5.13,0,0,0-.65,2.54q0,3.62,4.42,5.28a14.86,14.86,0,0,0-4.6,4.35,9.18,9.18,0,0,0-1.78,5.21,6.56,6.56,0,0,0,1.45,4.06A10.21,10.21,0,0,0,123.06,66a27.85,27.85,0,0,0,9.09,1.19,29.21,29.21,0,0,0,11.12-1.84A15.72,15.72,0,0,0,150,60.51,10.45,10.45,0,0,0,152.29,54a7.88,7.88,0,0,0-1.6-5.18,10.16,10.16,0,0,0-4.42-3"/><polygon class="cls-1" points="48.29 7.77 52.72 7.77 52.72 8.28 47.73 8.28 47.73 0.89 48.29 0.89 48.29 7.77"/><path class="cls-1" d="M53,.51a.53.53,0,0,1,.34.11.62.62,0,0,1,.22.28,1.33,1.33,0,0,1,.07.43,1.7,1.7,0,0,1-.11.58,1.72,1.72,0,0,1-.31.54,1.75,1.75,0,0,1-.54.41l-.32-.28a1.2,1.2,0,0,0,.47-.29,1.38,1.38,0,0,0,.31-.43,1,1,0,0,0,.1-.44h0l-.09.08-.17,0-.2-.06-.16-.17A.44.44,0,0,1,52.51,1l.07-.26.19-.19A.4.4,0,0,1,53,.51"/><path class="cls-1" d="M58.23,4.6a1.55,1.55,0,0,0-.39-1.13,1.5,1.5,0,0,0-1.12-.41,2.14,2.14,0,0,0-1.1.28,1.63,1.63,0,0,0-.68.91L54.48,4a2,2,0,0,1,.82-1,2.58,2.58,0,0,1,1.43-.37,2.45,2.45,0,0,1,1.08.22,1.66,1.66,0,0,1,.72.64,2.07,2.07,0,0,1,.26,1.07V7.3c0,.39.18.59.54.59a1,1,0,0,0,.4-.08l0,.45a1,1,0,0,1-.5.1,1.12,1.12,0,0,1-.48-.1.79.79,0,0,1-.36-.34,1.25,1.25,0,0,1-.14-.63V7h.16a1.49,1.49,0,0,1-.45.8,2,2,0,0,1-.79.47,2.74,2.74,0,0,1-.89.16,2.5,2.5,0,0,1-.94-.17,1.42,1.42,0,0,1-.65-.49A1.28,1.28,0,0,1,54.42,7a1.29,1.29,0,0,1,.42-1A2.31,2.31,0,0,1,56,5.41L58.34,5v.47l-2,.4a2.38,2.38,0,0,0-1,.39.85.85,0,0,0-.33.71.87.87,0,0,0,.35.72,1.64,1.64,0,0,0,1,.26A2.61,2.61,0,0,0,57,7.81a2,2,0,0,0,.62-.28,1.44,1.44,0,0,0,.45-.5,1.42,1.42,0,0,0,.17-.72Z"/><path class="cls-1" d="M65.52,1.65l.14.5H65.6a1.18,1.18,0,0,0-.85.28,1.09,1.09,0,0,0-.29.8l-.36-.18a1.47,1.47,0,0,1,.18-.74,1.26,1.26,0,0,1,.49-.48,1.39,1.39,0,0,1,.71-.18h0ZM62.81,3a1.88,1.88,0,0,0-1.21.38,1.21,1.21,0,0,0-.47,1,1.21,1.21,0,0,0,.47,1,1.83,1.83,0,0,0,1.21.38A1.8,1.8,0,0,0,64,5.39a1.21,1.21,0,0,0,.47-1,1.21,1.21,0,0,0-.47-1A1.85,1.85,0,0,0,62.81,3m.08,7.19A3.42,3.42,0,0,0,64,10.06a1.68,1.68,0,0,0,.72-.42A.8.8,0,0,0,65,9.06a.72.72,0,0,0-.34-.63,1.8,1.8,0,0,0-1-.24H62a1.52,1.52,0,0,0-.88.25.76.76,0,0,0-.34.66.9.9,0,0,0,.55.81,3.12,3.12,0,0,0,1.53.31m-.08-7.65A2.87,2.87,0,0,1,64,2.8a1.87,1.87,0,0,1,.79.64,1.62,1.62,0,0,1,.28,1,1.63,1.63,0,0,1-.28.95A1.82,1.82,0,0,1,64,6a2.72,2.72,0,0,1-1.17.23,2.48,2.48,0,0,1-1.66-.51,1.65,1.65,0,0,1-.6-1.32,1.62,1.62,0,0,1,.28-1,1.9,1.9,0,0,1,.8-.64,2.89,2.89,0,0,1,1.18-.23m.94,5.14a2.16,2.16,0,0,1,1.3.35,1.1,1.1,0,0,1,.47.93,1.27,1.27,0,0,1-.34.89,2.18,2.18,0,0,1-.94.6,4,4,0,0,1-1.35.21A3.6,3.6,0,0,1,61,10.26a1.26,1.26,0,0,1-.67-1.08,1.13,1.13,0,0,1,.34-.82,1.56,1.56,0,0,1,1-.41l0,.1A1.61,1.61,0,0,1,61,7.71.82.82,0,0,1,60.67,7,1,1,0,0,1,61,6.27,1.61,1.61,0,0,1,62,5.93l.59.2h-.23a1.66,1.66,0,0,0-.82.25.67.67,0,0,0-.31.57.65.65,0,0,0,.29.57,1.36,1.36,0,0,0,.76.19Z"/><path class="cls-1" d="M68.94,8.4a2.72,2.72,0,0,1-1.38-.35,2.48,2.48,0,0,1-1-1,3.34,3.34,0,0,1-.34-1.57,3.32,3.32,0,0,1,.34-1.56,2.5,2.5,0,0,1,.93-1,2.54,2.54,0,0,1,1.33-.35,2.35,2.35,0,0,1,1.3.34,2.21,2.21,0,0,1,.83.93,3.2,3.2,0,0,1,.29,1.39V5.6H66.62V5.09H71l-.28.08a2.31,2.31,0,0,0-.51-1.53,1.72,1.72,0,0,0-1.37-.57,2,2,0,0,0-1.07.28,1.94,1.94,0,0,0-.71.83,3,3,0,0,0-.26,1.3,3,3,0,0,0,.26,1.3,1.91,1.91,0,0,0,.74.84,2.13,2.13,0,0,0,1.11.28A2.08,2.08,0,0,0,70,7.62a1.85,1.85,0,0,0,.72-.77l.45.26a2,2,0,0,1-.54.69,2.54,2.54,0,0,1-.77.44,2.93,2.93,0,0,1-1,.16"/><path class="cls-1" d="M72.89,8.28V2.68h.5l0,1.4L73.35,4a1.92,1.92,0,0,1,.47-.78,2,2,0,0,1,.75-.49,2.62,2.62,0,0,1,.94-.17,2.45,2.45,0,0,1,1.11.24,1.73,1.73,0,0,1,.75.69,2.17,2.17,0,0,1,.28,1.16V8.28h-.56V4.83a1.76,1.76,0,0,0-.45-1.34,1.7,1.7,0,0,0-1.19-.42,2.09,2.09,0,0,0-1,.24,1.88,1.88,0,0,0-.73.7,2,2,0,0,0-.29,1.12V8.28Z"/><path class="cls-1" d="M81.85,2.57a2.73,2.73,0,0,1,1,.18,2,2,0,0,1,.76.52,2.18,2.18,0,0,1,.48.81l-.53.25A1.74,1.74,0,0,0,83,3.39a1.82,1.82,0,0,0-1.12-.33,2.06,2.06,0,0,0-1.09.29,1.91,1.91,0,0,0-.73.83,3,3,0,0,0-.25,1.3A3,3,0,0,0,80,6.78a1.87,1.87,0,0,0,.72.84,2,2,0,0,0,1.09.28,2.34,2.34,0,0,0,.85-.15,1.67,1.67,0,0,0,.64-.46,1.54,1.54,0,0,0,.33-.72l.52.18a2.21,2.21,0,0,1-.48.88,2.17,2.17,0,0,1-.8.57,2.93,2.93,0,0,1-2.41-.15,2.46,2.46,0,0,1-.94-1,3.46,3.46,0,0,1-.33-1.57,3.32,3.32,0,0,1,.34-1.56,2.33,2.33,0,0,1,.94-1,2.67,2.67,0,0,1,1.36-.35"/><path class="cls-1" d="M88,8.4a2.77,2.77,0,0,1-1.38-.35,2.46,2.46,0,0,1-.94-1,3.34,3.34,0,0,1-.34-1.57,3.32,3.32,0,0,1,.34-1.56,2.48,2.48,0,0,1,.92-1,2.56,2.56,0,0,1,1.33-.35,2.33,2.33,0,0,1,1.3.34,2.15,2.15,0,0,1,.83.93,3.06,3.06,0,0,1,.29,1.39v.19l0,.18H85.63V5.09H90l-.28.08a2.21,2.21,0,0,0-.51-1.53,1.71,1.71,0,0,0-1.37-.57,2,2,0,0,0-1.06.28,1.89,1.89,0,0,0-.72.83,3,3,0,0,0-.26,1.3,2.9,2.9,0,0,0,.27,1.3,1.85,1.85,0,0,0,.74.84,2.32,2.32,0,0,0,2.21,0,1.87,1.87,0,0,0,.73-.77l.44.26a2.12,2.12,0,0,1-.53.69,2.59,2.59,0,0,1-.78.44,2.93,2.93,0,0,1-1,.16"/><path class="cls-1" d="M97.66,7.9a1.89,1.89,0,0,0,1-.29,2,2,0,0,0,.7-.86,3.13,3.13,0,0,0,.25-1.31,2.91,2.91,0,0,0-.25-1.27,1.94,1.94,0,0,0-.69-.82,1.87,1.87,0,0,0-1-.28,1.9,1.9,0,0,0-1.52.64,2.66,2.66,0,0,0-.56,1.77,2.68,2.68,0,0,0,.55,1.77,1.87,1.87,0,0,0,1.51.65m-.07.5a2.54,2.54,0,0,1-1.31-.35,2.39,2.39,0,0,1-.91-1A3.46,3.46,0,0,1,95,5.48a3.35,3.35,0,0,1,.35-1.58,2.43,2.43,0,0,1,.94-1,2.64,2.64,0,0,1,1.31-.34A2.16,2.16,0,0,1,99,3a2,2,0,0,1,.74,1.15l-.07.05V.11h.56V8.28h-.5l0-1.55.06,0a1.89,1.89,0,0,1-.41.92,1.82,1.82,0,0,1-.76.58,2.45,2.45,0,0,1-1,.2"/><path class="cls-1" d="M104.49,8.4a2.77,2.77,0,0,1-1.38-.35,2.39,2.39,0,0,1-.94-1,3.34,3.34,0,0,1-.34-1.57,3.32,3.32,0,0,1,.34-1.56,2.41,2.41,0,0,1,.92-1,2.56,2.56,0,0,1,1.33-.35,2.35,2.35,0,0,1,1.3.34,2.15,2.15,0,0,1,.83.93,3.06,3.06,0,0,1,.29,1.39v.19l0,.18h-4.65V5.09h4.4l-.28.08a2.21,2.21,0,0,0-.51-1.53,1.72,1.72,0,0,0-1.37-.57,2,2,0,0,0-1.06.28,1.89,1.89,0,0,0-.72.83,3,3,0,0,0-.26,1.3,2.9,2.9,0,0,0,.27,1.3,1.85,1.85,0,0,0,.74.84,2.32,2.32,0,0,0,2.21,0,1.94,1.94,0,0,0,.73-.77l.44.26a2.12,2.12,0,0,1-.53.69,2.71,2.71,0,0,1-.78.44,2.93,2.93,0,0,1-1,.16"/><path class="cls-1" d="M113.84,8.4a3.13,3.13,0,0,1-1.5-.35,1.93,1.93,0,0,1-.93-1l.48-.32a1.62,1.62,0,0,0,.73.86,2.39,2.39,0,0,0,1.27.31,2,2,0,0,0,1.16-.29.89.89,0,0,0,.42-.77.84.84,0,0,0-.21-.57,1.42,1.42,0,0,0-.78-.36l-1.31-.28A2.1,2.1,0,0,1,112,5.09a1.31,1.31,0,0,1-.34-.92,1.31,1.31,0,0,1,.27-.8,2,2,0,0,1,.74-.58,2.76,2.76,0,0,1,1.12-.22,2.67,2.67,0,0,1,1.39.33,1.8,1.8,0,0,1,.77,1l-.47.31a1.4,1.4,0,0,0-.62-.87,2.07,2.07,0,0,0-1.07-.26,2.33,2.33,0,0,0-.83.13,1.4,1.4,0,0,0-.54.39.8.8,0,0,0-.2.55.88.88,0,0,0,.22.59,1.46,1.46,0,0,0,.8.38l1.34.3a2.13,2.13,0,0,1,1.11.5,1.2,1.2,0,0,1,.31.85,1.4,1.4,0,0,1-.26.87,1.68,1.68,0,0,1-.77.57,3.07,3.07,0,0,1-1.15.2"/><path class="cls-1" d="M119.88,8.4a2.72,2.72,0,0,1-1.38-.35,2.48,2.48,0,0,1-1-1,3.46,3.46,0,0,1-.34-1.57,3.45,3.45,0,0,1,.34-1.56,2.5,2.5,0,0,1,.93-1,2.54,2.54,0,0,1,1.33-.35,2.35,2.35,0,0,1,1.3.34,2.21,2.21,0,0,1,.83.93,3.2,3.2,0,0,1,.29,1.39V5.6h-4.65V5.09H122l-.28.08a2.31,2.31,0,0,0-.51-1.53,1.72,1.72,0,0,0-1.37-.57,2,2,0,0,0-1.07.28,1.94,1.94,0,0,0-.71.83,3,3,0,0,0-.26,1.3,3,3,0,0,0,.26,1.3,1.91,1.91,0,0,0,.74.84,2.13,2.13,0,0,0,1.11.28A2.08,2.08,0,0,0,121,7.62a1.85,1.85,0,0,0,.72-.77l.45.26a2,2,0,0,1-.54.69,2.54,2.54,0,0,1-.77.44,2.93,2.93,0,0,1-1,.16"/><path class="cls-1" d="M123.83,8.28V2.68h.47l.07,1.18a1.93,1.93,0,0,1,.68-.94,1.85,1.85,0,0,1,1.13-.35,1.62,1.62,0,0,1,.4.05.83.83,0,0,1,.3.14l-.13.5a.84.84,0,0,0-.27-.13,1.55,1.55,0,0,0-.43,0,1.42,1.42,0,0,0-.81.26,2,2,0,0,0-.62.73,2.41,2.41,0,0,0-.23,1.07V8.28Z"/><polygon class="cls-1" points="131.9 2.68 132.5 2.68 130.16 8.28 129.6 8.28 127.26 2.68 127.88 2.68 129.89 7.7 131.9 2.68"/><path class="cls-1" d="M134.24,8.28h-.56V2.68h.56ZM134,1.6a.49.49,0,0,1-.34-.13.49.49,0,0,1-.13-.34.46.46,0,0,1,.13-.34A.45.45,0,0,1,134,.66a.46.46,0,0,1,.35.13.45.45,0,0,1,.12.34.49.49,0,0,1-.12.34.5.5,0,0,1-.35.13"/><path class="cls-1" d="M138.5,2.57a2.73,2.73,0,0,1,1,.18,2,2,0,0,1,.76.52,2.18,2.18,0,0,1,.48.81l-.52.25a1.75,1.75,0,0,0-.63-.94,1.82,1.82,0,0,0-1.12-.33,2.09,2.09,0,0,0-1.09.29,2,2,0,0,0-.73.83,3,3,0,0,0-.25,1.3,3,3,0,0,0,.25,1.3,1.93,1.93,0,0,0,.72.84,2,2,0,0,0,1.09.28,2.3,2.3,0,0,0,.85-.15,1.67,1.67,0,0,0,.64-.46,1.54,1.54,0,0,0,.33-.72l.52.18a2.21,2.21,0,0,1-.48.88,2.17,2.17,0,0,1-.8.57,2.93,2.93,0,0,1-2.41-.15,2.46,2.46,0,0,1-.94-1,3.46,3.46,0,0,1-.33-1.57,3.32,3.32,0,0,1,.34-1.56,2.39,2.39,0,0,1,.94-1,2.67,2.67,0,0,1,1.36-.35"/><path class="cls-1" d="M144.6,8.4a2.77,2.77,0,0,1-1.38-.35,2.46,2.46,0,0,1-.94-1,3.34,3.34,0,0,1-.34-1.57,3.32,3.32,0,0,1,.34-1.56,2.48,2.48,0,0,1,.92-1,2.56,2.56,0,0,1,1.33-.35,2.33,2.33,0,0,1,1.3.34,2.15,2.15,0,0,1,.83.93A3.06,3.06,0,0,1,147,5.23v.19l0,.18h-4.65V5.09h4.41l-.28.08a2.31,2.31,0,0,0-.51-1.53,1.74,1.74,0,0,0-1.38-.57,1.86,1.86,0,0,0-1.78,1.11,3,3,0,0,0-.25,1.3,2.9,2.9,0,0,0,.26,1.3,1.85,1.85,0,0,0,.74.84,2.09,2.09,0,0,0,1.1.28,2.12,2.12,0,0,0,1.12-.28,1.91,1.91,0,0,0,.72-.77l.45.26a2.3,2.3,0,0,1-.54.69,2.66,2.66,0,0,1-.77.44,3,3,0,0,1-1,.16"/><path class="cls-1" d="M150.45,8.4a3.2,3.2,0,0,1-1.51-.35,2,2,0,0,1-.92-1l.48-.32a1.6,1.6,0,0,0,.72.86,2.42,2.42,0,0,0,1.27.31,2,2,0,0,0,1.16-.29.89.89,0,0,0,.42-.77.84.84,0,0,0-.21-.57,1.35,1.35,0,0,0-.77-.36l-1.31-.28a2.1,2.1,0,0,1-1.15-.54,1.31,1.31,0,0,1-.34-.92,1.31,1.31,0,0,1,.27-.8,1.83,1.83,0,0,1,.74-.58,2.75,2.75,0,0,1,1.11-.22,2.65,2.65,0,0,1,1.39.33,1.77,1.77,0,0,1,.78,1l-.47.31a1.41,1.41,0,0,0-.63-.87,2,2,0,0,0-1.07-.26,2.31,2.31,0,0,0-.82.13,1.44,1.44,0,0,0-.55.39.84.84,0,0,0-.19.55.88.88,0,0,0,.22.59,1.46,1.46,0,0,0,.8.38l1.34.3a2.13,2.13,0,0,1,1.11.5,1.2,1.2,0,0,1,.31.85,1.41,1.41,0,0,1-.27.87,1.65,1.65,0,0,1-.76.57,3.11,3.11,0,0,1-1.15.2"/><polygon class="cls-1" points="175.26 7.84 179.69 7.84 179.69 8.36 174.7 8.36 174.7 0.96 175.26 0.96 175.26 7.84"/><path class="cls-1" d="M182.85,8.47a2.71,2.71,0,0,1-1.37-.35,2.41,2.41,0,0,1-.95-1,3.32,3.32,0,0,1-.34-1.56A3.34,3.34,0,0,1,180.53,4a2.55,2.55,0,0,1,.92-1,2.6,2.6,0,0,1,1.34-.35,2.47,2.47,0,0,1,1.3.34,2.22,2.22,0,0,1,.82.94,3,3,0,0,1,.3,1.38v.19l0,.18h-4.64V5.16h4.4l-.28.08a2.31,2.31,0,0,0-.51-1.53,1.74,1.74,0,0,0-1.37-.57,2,2,0,0,0-1.07.28,2,2,0,0,0-.72.83,3.06,3.06,0,0,0-.25,1.31A2.86,2.86,0,0,0,181,6.85a1.91,1.91,0,0,0,.74.84,2.09,2.09,0,0,0,1.1.28A2.12,2.12,0,0,0,184,7.69a1.85,1.85,0,0,0,.72-.77l.45.26a2.3,2.3,0,0,1-.54.69,2.34,2.34,0,0,1-.77.44,3,3,0,0,1-1,.16"/><path class="cls-1" d="M190.31,8.36V2.76h.51l0,1.16a1.89,1.89,0,0,1,.8-.94,2.38,2.38,0,0,1,1.24-.34,2.29,2.29,0,0,1,1.26.35,1.76,1.76,0,0,1,.73,1,1.77,1.77,0,0,1,.47-.73,2.23,2.23,0,0,1,.76-.48,2.58,2.58,0,0,1,.91-.17,2.46,2.46,0,0,1,1.06.23,1.89,1.89,0,0,1,.76.7,2.17,2.17,0,0,1,.28,1.16V8.34h-.56V4.77a1.61,1.61,0,0,0-.44-1.24,1.65,1.65,0,0,0-1.17-.4,1.92,1.92,0,0,0-1,.25,1.84,1.84,0,0,0-.71.7,2,2,0,0,0-.27,1V8.36h-.56V4.78A1.6,1.6,0,0,0,194,3.55a1.64,1.64,0,0,0-1.17-.41,1.93,1.93,0,0,0-1.68.95,2,2,0,0,0-.28,1.1V8.36Z"/><path class="cls-1" d="M203.79.06h.62l-1,1.77h-.46Zm-.44,8.41A2.72,2.72,0,0,1,202,8.12a2.48,2.48,0,0,1-.95-1,3.32,3.32,0,0,1-.34-1.56A3.34,3.34,0,0,1,201,4,2.5,2.5,0,0,1,202,3a2.54,2.54,0,0,1,1.33-.35,2.44,2.44,0,0,1,1.3.34,2.24,2.24,0,0,1,.83.94,3.15,3.15,0,0,1,.29,1.38v.37H201V5.16h4.4l-.28.08a2.31,2.31,0,0,0-.51-1.53,1.72,1.72,0,0,0-1.37-.57,2,2,0,0,0-1.07.28,1.94,1.94,0,0,0-.71.83,3.06,3.06,0,0,0-.26,1.31,3,3,0,0,0,.26,1.29,1.91,1.91,0,0,0,.74.84,2.13,2.13,0,0,0,1.11.28,2.08,2.08,0,0,0,1.11-.28,1.85,1.85,0,0,0,.72-.77l.45.26a2,2,0,0,1-.54.69,2.34,2.34,0,0,1-.77.44,2.93,2.93,0,0,1-1,.16"/><path class="cls-1" d="M209.55,8a1.83,1.83,0,0,0,1-.29,2,2,0,0,0,.7-.86,3.13,3.13,0,0,0,.25-1.31,2.91,2.91,0,0,0-.25-1.27,2,2,0,0,0-.69-.82,2.08,2.08,0,0,0-2.55.37,2.63,2.63,0,0,0-.56,1.77A2.66,2.66,0,0,0,208,7.33a1.88,1.88,0,0,0,1.51.64m-.07.5a2.54,2.54,0,0,1-1.31-.35,2.39,2.39,0,0,1-.91-1,3.45,3.45,0,0,1-.33-1.56A3.32,3.32,0,0,1,207.28,4a2.31,2.31,0,0,1,.94-1,2.54,2.54,0,0,1,1.31-.35,2.16,2.16,0,0,1,1.34.42,2.05,2.05,0,0,1,.74,1.15l-.07,0V.18h.56V8.36h-.5l0-1.56.06,0a1.86,1.86,0,0,1-.41.91,1.82,1.82,0,0,1-.76.58,2.45,2.45,0,0,1-1,.2"/><path class="cls-1" d="M214.66,8.35h-.56V2.76h.56Zm-.28-6.68a.46.46,0,0,1-.35-.13.47.47,0,0,1-.12-.34A.47.47,0,0,1,214,.86a.46.46,0,0,1,.35-.13.45.45,0,0,1,.34.13.48.48,0,0,1,.13.34.48.48,0,0,1-.13.34.45.45,0,0,1-.34.13"/><path class="cls-1" d="M220.08,4.67a1.53,1.53,0,0,0-.4-1.13,1.48,1.48,0,0,0-1.12-.4,2.1,2.1,0,0,0-1.09.27,1.64,1.64,0,0,0-.69.91L216.33,4a1.93,1.93,0,0,1,.82-1,2.56,2.56,0,0,1,1.43-.37,2.6,2.6,0,0,1,1.08.22,1.62,1.62,0,0,1,.72.65,2,2,0,0,1,.26,1.06v2.8c0,.4.18.59.53.59a.88.88,0,0,0,.41-.08l0,.45a1,1,0,0,1-.49.1,1.12,1.12,0,0,1-.48-.1A.83.83,0,0,1,220.2,8a1.3,1.3,0,0,1-.13-.64v-.3l.15,0a1.5,1.5,0,0,1-.44.81,2.34,2.34,0,0,1-.79.47,2.83,2.83,0,0,1-.9.15,2.54,2.54,0,0,1-.94-.17,1.46,1.46,0,0,1-.65-.49,1.32,1.32,0,0,1-.23-.79,1.31,1.31,0,0,1,.42-1,2.27,2.27,0,0,1,1.18-.53L220.19,5v.47l-2,.4a2.43,2.43,0,0,0-1,.39.87.87,0,0,0-.32.71.85.85,0,0,0,.35.72,1.57,1.57,0,0,0,1,.26,2.5,2.5,0,0,0,.66-.09,1.94,1.94,0,0,0,.62-.28,1.53,1.53,0,0,0,.46-.49,1.49,1.49,0,0,0,.17-.73Z"/></g></g></svg>